<mxfile host="Electron" modified="2023-06-03T01:42:57.922Z" agent="Mozilla/5.0 (Macintosh; Intel Mac OS X 10_15_7) AppleWebKit/537.36 (KHTML, like Gecko) draw.io/21.2.8 Chrome/112.0.5615.165 Electron/24.2.0 Safari/537.36" etag="0FnCsr3FY4ugLwHbup2d" version="21.2.8" type="device">
  <diagram name="Page-1" id="6q4YjbCsCEjDF3uW9Bo5">
    <mxGraphModel dx="1964" dy="1994" grid="1" gridSize="10" guides="1" tooltips="1" connect="1" arrows="1" fold="1" page="1" pageScale="1" pageWidth="850" pageHeight="1100" math="0" shadow="0">
      <root>
        <mxCell id="0" />
        <mxCell id="1" parent="0" />
        <mxCell id="oZh9d0BxKYFGB5esVBUl-13" style="edgeStyle=orthogonalEdgeStyle;rounded=0;orthogonalLoop=1;jettySize=auto;html=1;exitX=0.25;exitY=1;exitDx=0;exitDy=0;entryX=0.25;entryY=0;entryDx=0;entryDy=0;" parent="1" source="5yvLbwEl-1r1vWmJ1qS_-1" target="5yvLbwEl-1r1vWmJ1qS_-2" edge="1">
          <mxGeometry relative="1" as="geometry" />
        </mxCell>
        <mxCell id="5yvLbwEl-1r1vWmJ1qS_-1" value="&lt;b&gt;IDLE&lt;/b&gt;&lt;br style=&quot;font-size: 14px;&quot;&gt;(Browsing and Selecting)" style="rounded=1;whiteSpace=wrap;html=1;fillColor=#fff2cc;strokeColor=#d6b656;strokeWidth=4;imageWidth=24;imageHeight=24;fontSize=14;" parent="1" vertex="1">
          <mxGeometry x="140" y="-154" width="200" height="80" as="geometry" />
        </mxCell>
        <mxCell id="oZh9d0BxKYFGB5esVBUl-9" style="edgeStyle=orthogonalEdgeStyle;rounded=0;orthogonalLoop=1;jettySize=auto;html=1;exitX=0;exitY=0.25;exitDx=0;exitDy=0;entryX=0.75;entryY=1;entryDx=0;entryDy=0;" parent="1" source="5yvLbwEl-1r1vWmJ1qS_-2" target="CRWILKBoxZJsyQT_hSzq-4" edge="1">
          <mxGeometry relative="1" as="geometry">
            <Array as="points">
              <mxPoint x="140" y="-24" />
            </Array>
          </mxGeometry>
        </mxCell>
        <mxCell id="oZh9d0BxKYFGB5esVBUl-11" style="edgeStyle=orthogonalEdgeStyle;rounded=0;orthogonalLoop=1;jettySize=auto;html=1;exitX=1;exitY=0.25;exitDx=0;exitDy=0;entryX=0.25;entryY=1;entryDx=0;entryDy=0;" parent="1" source="5yvLbwEl-1r1vWmJ1qS_-2" target="CRWILKBoxZJsyQT_hSzq-7" edge="1">
          <mxGeometry relative="1" as="geometry">
            <Array as="points">
              <mxPoint x="340" y="-24" />
            </Array>
          </mxGeometry>
        </mxCell>
        <mxCell id="oZh9d0BxKYFGB5esVBUl-14" style="edgeStyle=orthogonalEdgeStyle;rounded=0;orthogonalLoop=1;jettySize=auto;html=1;exitX=0.75;exitY=0;exitDx=0;exitDy=0;entryX=0.75;entryY=1;entryDx=0;entryDy=0;" parent="1" source="5yvLbwEl-1r1vWmJ1qS_-2" target="5yvLbwEl-1r1vWmJ1qS_-1" edge="1">
          <mxGeometry relative="1" as="geometry" />
        </mxCell>
        <mxCell id="oZh9d0BxKYFGB5esVBUl-16" style="edgeStyle=orthogonalEdgeStyle;rounded=0;orthogonalLoop=1;jettySize=auto;html=1;exitX=0.75;exitY=1;exitDx=0;exitDy=0;entryX=0.75;entryY=0;entryDx=0;entryDy=0;" parent="1" source="5yvLbwEl-1r1vWmJ1qS_-2" target="n-6eOl7cR6maywZHHqQ9-1" edge="1">
          <mxGeometry relative="1" as="geometry" />
        </mxCell>
        <mxCell id="5yvLbwEl-1r1vWmJ1qS_-2" value="&lt;b&gt;OBJECT_SELECTED&lt;/b&gt;&lt;br style=&quot;font-size: 14px;&quot;&gt;(Mode Switching)" style="rounded=1;whiteSpace=wrap;html=1;fillColor=#f5f5f5;fontColor=#333333;strokeColor=#666666;imageWidth=24;imageHeight=24;fontSize=14;" parent="1" vertex="1">
          <mxGeometry x="140" y="-14" width="200" height="80" as="geometry" />
        </mxCell>
        <mxCell id="oZh9d0BxKYFGB5esVBUl-10" style="edgeStyle=orthogonalEdgeStyle;rounded=0;orthogonalLoop=1;jettySize=auto;html=1;exitX=0.25;exitY=1;exitDx=0;exitDy=0;entryX=0;entryY=0.75;entryDx=0;entryDy=0;" parent="1" source="CRWILKBoxZJsyQT_hSzq-4" target="5yvLbwEl-1r1vWmJ1qS_-2" edge="1">
          <mxGeometry relative="1" as="geometry">
            <Array as="points">
              <mxPoint x="140" y="76" />
            </Array>
          </mxGeometry>
        </mxCell>
        <mxCell id="CRWILKBoxZJsyQT_hSzq-4" value="&lt;b&gt;OBJECT_ROTATING&lt;/b&gt;&lt;br style=&quot;font-size: 14px;&quot;&gt;(Object Manipulating)" style="rounded=1;whiteSpace=wrap;html=1;fillColor=#f5f5f5;fontColor=#333333;strokeColor=#666666;imageWidth=24;imageHeight=24;fontSize=14;rotation=-90;" parent="1" vertex="1">
          <mxGeometry x="-60" y="-14" width="200" height="80" as="geometry" />
        </mxCell>
        <mxCell id="oZh9d0BxKYFGB5esVBUl-12" style="edgeStyle=orthogonalEdgeStyle;rounded=0;orthogonalLoop=1;jettySize=auto;html=1;exitX=0.75;exitY=1;exitDx=0;exitDy=0;entryX=1;entryY=0.75;entryDx=0;entryDy=0;" parent="1" source="CRWILKBoxZJsyQT_hSzq-7" target="5yvLbwEl-1r1vWmJ1qS_-2" edge="1">
          <mxGeometry relative="1" as="geometry">
            <Array as="points">
              <mxPoint x="340" y="76" />
            </Array>
          </mxGeometry>
        </mxCell>
        <mxCell id="CRWILKBoxZJsyQT_hSzq-7" value="&lt;b&gt;OBJECT_RESCALING&lt;/b&gt;&lt;br style=&quot;font-size: 14px;&quot;&gt;(Object Manipulating)" style="rounded=1;whiteSpace=wrap;html=1;fillColor=#f5f5f5;fontColor=#333333;strokeColor=#666666;imageWidth=24;imageHeight=24;fontSize=14;rotation=90;" parent="1" vertex="1">
          <mxGeometry x="340" y="-14" width="200" height="80" as="geometry" />
        </mxCell>
        <mxCell id="oZh9d0BxKYFGB5esVBUl-15" style="edgeStyle=orthogonalEdgeStyle;rounded=0;orthogonalLoop=1;jettySize=auto;html=1;exitX=0.25;exitY=0;exitDx=0;exitDy=0;entryX=0.25;entryY=1;entryDx=0;entryDy=0;" parent="1" source="n-6eOl7cR6maywZHHqQ9-1" target="5yvLbwEl-1r1vWmJ1qS_-2" edge="1">
          <mxGeometry relative="1" as="geometry" />
        </mxCell>
        <mxCell id="n-6eOl7cR6maywZHHqQ9-1" value="&lt;b&gt;OBJECT_TRANSLATING&lt;/b&gt;&lt;br style=&quot;font-size: 14px;&quot;&gt;(Object Manipulating)" style="rounded=1;whiteSpace=wrap;html=1;fillColor=#f5f5f5;fontColor=#333333;strokeColor=#666666;imageWidth=24;imageHeight=24;fontSize=14;" parent="1" vertex="1">
          <mxGeometry x="140" y="126" width="200" height="80" as="geometry" />
        </mxCell>
        <mxCell id="Wn2ly3mG2TpMB56mMUq0-1" value="" style="rounded=1;whiteSpace=wrap;html=1;fillColor=#fff2cc;strokeColor=#d6b656;strokeWidth=4;fontSize=14;" parent="1" vertex="1">
          <mxGeometry x="10" y="-238" width="60" height="20" as="geometry" />
        </mxCell>
        <mxCell id="Wn2ly3mG2TpMB56mMUq0-4" value="Initial State" style="text;html=1;strokeColor=none;fillColor=none;align=center;verticalAlign=middle;whiteSpace=wrap;rounded=0;fontSize=14;" parent="1" vertex="1">
          <mxGeometry x="-30" y="-214" width="140" height="30" as="geometry" />
        </mxCell>
        <mxCell id="Wn2ly3mG2TpMB56mMUq0-3" value="" style="endArrow=classic;html=1;rounded=0;fontSize=14;" parent="1" edge="1">
          <mxGeometry width="50" height="50" relative="1" as="geometry">
            <mxPoint x="400" y="-225.5" as="sourcePoint" />
            <mxPoint x="460" y="-225.5" as="targetPoint" />
          </mxGeometry>
        </mxCell>
        <mxCell id="Wn2ly3mG2TpMB56mMUq0-6" value="State Transition" style="text;html=1;strokeColor=none;fillColor=none;align=center;verticalAlign=middle;whiteSpace=wrap;rounded=0;fontSize=14;" parent="1" vertex="1">
          <mxGeometry x="362" y="-215" width="140" height="30" as="geometry" />
        </mxCell>
        <mxCell id="Wn2ly3mG2TpMB56mMUq0-2" value="" style="rounded=1;whiteSpace=wrap;html=1;fillColor=#f5f5f5;fontColor=#333333;strokeColor=#666666;fontSize=14;" parent="1" vertex="1">
          <mxGeometry x="130" y="-238" width="60" height="20" as="geometry" />
        </mxCell>
        <mxCell id="Wn2ly3mG2TpMB56mMUq0-5" value="Intermediate State" style="text;html=1;strokeColor=none;fillColor=none;align=center;verticalAlign=middle;whiteSpace=wrap;rounded=0;fontSize=14;" parent="1" vertex="1">
          <mxGeometry x="90" y="-214" width="140" height="30" as="geometry" />
        </mxCell>
        <mxCell id="XJPZcWnb97QFhMD302v2-1" value="1" style="ellipse;whiteSpace=wrap;html=1;aspect=fixed;" parent="1" vertex="1">
          <mxGeometry x="196" y="-55.5" width="20" height="20" as="geometry" />
        </mxCell>
        <mxCell id="XJPZcWnb97QFhMD302v2-2" value="1" style="ellipse;whiteSpace=wrap;html=1;aspect=fixed;" parent="1" vertex="1">
          <mxGeometry x="196" y="88" width="20" height="20" as="geometry" />
        </mxCell>
        <mxCell id="XJPZcWnb97QFhMD302v2-3" value="5" style="ellipse;whiteSpace=wrap;html=1;aspect=fixed;" parent="1" vertex="1">
          <mxGeometry x="264" y="-55.5" width="20" height="20" as="geometry" />
        </mxCell>
        <mxCell id="XJPZcWnb97QFhMD302v2-4" value="3" style="ellipse;whiteSpace=wrap;html=1;aspect=fixed;" parent="1" vertex="1">
          <mxGeometry x="264" y="87.5" width="20" height="20" as="geometry" />
        </mxCell>
        <mxCell id="XJPZcWnb97QFhMD302v2-5" value="2" style="ellipse;whiteSpace=wrap;html=1;aspect=fixed;" parent="1" vertex="1">
          <mxGeometry x="100" y="-19" width="20" height="20" as="geometry" />
        </mxCell>
        <mxCell id="XJPZcWnb97QFhMD302v2-6" value="1" style="ellipse;whiteSpace=wrap;html=1;aspect=fixed;" parent="1" vertex="1">
          <mxGeometry x="100" y="50.5" width="20" height="20" as="geometry" />
        </mxCell>
        <mxCell id="XJPZcWnb97QFhMD302v2-7" value="4" style="ellipse;whiteSpace=wrap;html=1;aspect=fixed;" parent="1" vertex="1">
          <mxGeometry x="360" y="-19" width="20" height="20" as="geometry" />
        </mxCell>
        <mxCell id="XJPZcWnb97QFhMD302v2-8" value="1" style="ellipse;whiteSpace=wrap;html=1;aspect=fixed;" parent="1" vertex="1">
          <mxGeometry x="360" y="50.5" width="20" height="20" as="geometry" />
        </mxCell>
      </root>
    </mxGraphModel>
  </diagram>
</mxfile>
